# xmcd
#
# Track frame offsets:
#	150
#	12749
#	24943
#	36794
#	47682
#	59167
#	71615
#	84417
#	98232
#	112515
#	124625
#	137235
#	149356
#	161280
#	175527
#	188067
#	201819
#	213652
#	226646
#	239110
#
# Disc length: 3343 seconds
#
# Revision: 0
# Processed by: cddbd v1.5.2PL0 Copyright (c) Steve Scherf et al.
# Submitted via: EasyCDDAExtractor 15.2.5.1
#
DISCID=110d0d14
DTITLE=Various Artist - Countrified - Down A Country Road
DYEAR=2003
DGENRE=Country
TTITLE0=Hank Snow - I'm Movin' On
TTITLE1=Red Foley - Tennessee Saturday Night
TTITLE2=Elton Britt - Chime Bells
TTITLE3=Eddie Arnold - Bouquet Of Roses
TTITLE4=Kitty Wells - It Wasn't God Who Made Honky Tonk Angels
TTITLE5=Hank Williams - Lovesick Blues
TTITLE6=Tex Ritter - I'm Wastin' My Tears On You
TTITLE7=Slim Whitman - Song Of The Old Waterwheel
TTITLE8=Tommy Duncan - Gamblin' Polka Dot Blues
TTITLE9=Peggy Lee - Riders In The Sky
TTITLE10=Sons Of The Pioneers - Rollin' Dust
TTITLE11=Merle Travis - No Vacancy
TTITLE12=Gene Autry - Back In The Saddle Again
TTITLE13=The Carter Family - Can The Circle Be Unbroken (Bye And Bye)
TTITLE14=Lefty Frizzell - I Love You A Thousand Ways
TTITLE15=Pee Wee King - Slow Poke
TTITLE16=Tennessee Ernie Ford and Kay Starr - I'll Never Be Free
TTITLE17=Ernest Tubb - Have You Ever Been Lonely
TTITLE18=Floyd Tillman - Slipping Around
TTITLE19=Tex Williams - That's What I Like About The West
EXTD=
EXTT0=
EXTT1=
EXTT2=
EXTT3=
EXTT4=
EXTT5=
EXTT6=
EXTT7=
EXTT8=
EXTT9=
EXTT10=
EXTT11=
EXTT12=
EXTT13=
EXTT14=
EXTT15=
EXTT16=
EXTT17=
EXTT18=
EXTT19=
PLAYORDER=
